<svg width="184" height="24" viewBox="0 0 184 24" fill="none" xmlns="http://www.w3.org/2000/svg">
<path d="M17.812 5.01711H6.145C3.855 5.01711 2 6.85211 2 9.11611V14.8841C2 17.1481 3.856 18.9841 6.145 18.9841H17.812C20.102 18.9841 21.957 17.1481 21.957 14.8841V9.11611C21.957 6.85211 20.101 5.01611 17.812 5.01611V5.01711ZM15.009 12.2801L9.552 14.8551C9.51872 14.8711 9.48192 14.8785 9.44503 14.8765C9.40815 14.8744 9.37237 14.8631 9.34103 14.8436C9.3097 14.824 9.28382 14.7968 9.2658 14.7646C9.24779 14.7323 9.23822 14.6961 9.238 14.6591V9.35011C9.23867 9.31299 9.24872 9.27663 9.26722 9.24444C9.28573 9.21224 9.31208 9.18526 9.34382 9.16599C9.37556 9.14673 9.41167 9.13581 9.44877 9.13425C9.48587 9.1327 9.52276 9.14057 9.556 9.15711L15.014 11.8921C15.0504 11.9102 15.0809 11.9383 15.102 11.9729C15.1232 12.0076 15.1341 12.0476 15.1336 12.0882C15.1331 12.1288 15.1211 12.1685 15.0991 12.2026C15.077 12.2367 15.0458 12.2639 15.009 12.2811V12.2801Z" fill="#475569"/>
<path d="M49.046 5.865V8.613H47.032V11.973H49.046V21.959H53.18V11.974H55.955C55.955 11.974 56.215 10.363 56.341 8.601H53.197V6.303C53.197 5.96 53.647 5.498 54.093 5.498H56.347V2H53.283C48.943 2 49.046 5.363 49.046 5.865Z" fill="#475569"/>
<path d="M102 5.90692C101.25 6.2343 100.456 6.44896 99.644 6.54392C100.497 6.04315 101.138 5.24903 101.448 4.30992C100.64 4.78025 99.7587 5.11152 98.841 5.28992C98.4545 4.88513 97.9897 4.56331 97.4748 4.3441C96.9598 4.12489 96.4056 4.01289 95.846 4.01492C93.58 4.01492 91.743 5.82492 91.743 8.05492C91.743 8.37092 91.779 8.67992 91.849 8.97492C90.2236 8.89761 88.6321 8.48233 87.1762 7.75556C85.7202 7.02879 84.4318 6.0065 83.393 4.75392C83.0288 5.36832 82.8374 6.0697 82.839 6.78392C82.8397 7.45189 83.0068 8.10915 83.3253 8.69631C83.6438 9.28348 84.1035 9.78203 84.663 10.1469C84.0125 10.1259 83.376 9.95225 82.805 9.63992V9.68992C82.805 11.6479 84.22 13.2809 86.095 13.6529C85.7426 13.7464 85.3796 13.7938 85.015 13.7939C84.75 13.7939 84.493 13.7689 84.242 13.7189C84.5101 14.5268 85.0231 15.2312 85.7098 15.7343C86.3965 16.2373 87.2228 16.514 88.074 16.5259C86.6141 17.6505 84.8218 18.258 82.979 18.2529C82.647 18.2529 82.321 18.2329 82 18.1969C83.8813 19.3876 86.0626 20.0182 88.289 20.0149C95.836 20.0149 99.962 13.8579 99.962 8.51892L99.948 7.99592C100.753 7.42959 101.448 6.72177 102 5.90692Z" fill="#475569"/>
<path d="M136.017 2H127.947C126.37 2.00185 124.858 2.62914 123.744 3.74424C122.629 4.85933 122.002 6.37115 122 7.948V16.018C122.002 17.5948 122.629 19.1066 123.744 20.2215C124.859 21.3364 126.371 21.9634 127.948 21.965H136.018C137.595 21.9631 139.107 21.3359 140.221 20.2208C141.336 19.1057 141.963 17.5938 141.965 16.017V7.947C141.963 6.37015 141.336 4.85844 140.221 3.74353C139.106 2.62862 137.594 2.00159 136.017 2V2ZM139.957 16.017C139.957 16.5344 139.855 17.0468 139.657 17.5248C139.459 18.0028 139.169 18.4371 138.803 18.803C138.437 19.1689 138.003 19.4591 137.525 19.6571C137.047 19.8551 136.534 19.957 136.017 19.957H127.947C126.902 19.9567 125.9 19.5415 125.162 18.8026C124.423 18.0638 124.008 17.0618 124.008 16.017V7.947C124.008 6.90222 124.423 5.90032 125.162 5.16165C125.901 4.42297 126.903 4.008 127.948 4.008H136.018C137.063 4.00827 138.065 4.42349 138.803 5.16235C139.542 5.90122 139.957 6.90322 139.957 7.948V16.018V16.017Z" fill="#475569"/>
<path d="M131.982 6.81909C130.613 6.82121 129.302 7.36588 128.334 8.3337C127.366 9.30152 126.822 10.6135 126.82 11.9821C126.822 13.351 127.366 14.6634 128.334 15.6315C129.302 16.5996 130.614 17.1442 131.983 17.1461C133.352 17.1445 134.665 16.5999 135.633 15.6318C136.601 14.6637 137.145 13.3512 137.147 11.9821C137.145 10.6132 136.6 9.30098 135.632 8.33329C134.663 7.3656 133.351 6.82141 131.982 6.82009V6.81909ZM131.982 15.1381C131.145 15.1381 130.343 14.8057 129.751 14.214C129.159 13.6223 128.827 12.8198 128.827 11.9831C128.827 11.1463 129.159 10.3438 129.751 9.75217C130.343 9.16049 131.145 8.82809 131.982 8.82809C132.819 8.82809 133.621 9.16049 134.213 9.75217C134.805 10.3438 135.137 11.1463 135.137 11.9831C135.137 12.8198 134.805 13.6223 134.213 14.214C133.621 14.8057 132.819 15.1381 131.982 15.1381Z" fill="#475569"/>
<path d="M137.156 8.09509C137.839 8.09509 138.393 7.54127 138.393 6.85809C138.393 6.17492 137.839 5.62109 137.156 5.62109C136.473 5.62109 135.919 6.17492 135.919 6.85809C135.919 7.54127 136.473 8.09509 137.156 8.09509Z" fill="#475569"/>
<path d="M181.959 13.7189V21.0979H177.681V14.2129C177.681 12.4829 177.062 11.3029 175.514 11.3029C174.332 11.3029 173.628 12.0989 173.319 12.8679C173.206 13.1429 173.177 13.5259 173.177 13.9109V21.0979H168.897C168.897 21.0979 168.955 9.43788 168.897 8.22888H173.177V10.0529L173.149 10.0949H173.177V10.0529C173.745 9.17788 174.76 7.92688 177.033 7.92688C179.848 7.92688 181.959 9.76688 181.959 13.7189ZM164.421 2.02588C162.958 2.02588 162 2.98588 162 4.24888C162 5.48388 162.93 6.47288 164.365 6.47288H164.393C165.886 6.47288 166.813 5.48388 166.813 4.24888C166.787 2.98588 165.887 2.02588 164.422 2.02588H164.421ZM162.254 21.0979H166.532V8.22888H162.254V21.0979Z" fill="#475569"/>
</svg>
