<svg width="64" height="64" viewBox="0 0 64 64" fill="none" xmlns="http://www.w3.org/2000/svg">
<path d="M16.3488 29.1853L16.7623 29.0988C20.123 28.3954 22.1621 27.0938 23.3824 25.4642C24.6078 23.8276 25.0604 21.7904 25.1063 19.5126L25.1063 19.5125C25.1779 15.9911 25.154 12.4753 25.1302 8.95162C25.1182 7.18598 25.1062 5.41836 25.1062 3.64706C25.1062 2.88183 25.0801 2.29782 24.8285 1.88268C24.6159 1.53167 24.1598 1.18889 22.9585 1.16816L22.9584 1.16816C21.778 1.1474 21.2614 1.46029 21.0018 1.81141C20.7127 2.20247 20.6287 2.77927 20.6175 3.53095L20.6175 3.53203C20.6053 4.24739 20.5943 4.9634 20.5832 5.67983C20.5456 8.12062 20.5079 10.5664 20.4246 13.0089M16.3488 29.1853L17.6398 16.688L17.6438 17.188C18.4438 17.1815 19.0639 17.0312 19.5241 16.7276C19.9982 16.415 20.2463 15.9772 20.3666 15.5173C20.4826 15.0738 20.4832 14.5976 20.4663 14.1758C20.4605 14.0301 20.4528 13.8932 20.4456 13.7629C20.4304 13.4897 20.4168 13.2455 20.4246 13.0089M16.3488 29.1853L16.3651 29.6074C16.5235 33.7331 16.6819 37.8409 16.8399 41.939C17.0439 47.2292 17.2473 52.5031 17.4493 57.7784M16.3488 29.1853L17.5013 59.9284M20.4246 13.0089L19.9249 12.9919L20.4246 13.0084C20.4246 13.0086 20.4246 13.0088 20.4246 13.0089ZM17.5013 59.9284C17.5532 59.4549 17.5228 58.9974 17.4893 58.4932C17.4742 58.2663 17.4584 58.0299 17.4493 57.7784M17.5013 59.9284C17.3673 61.1242 16.7967 62.0318 15.875 62.6353C14.9392 63.248 13.6035 63.5701 11.9233 63.4927C10.4714 63.4258 9.38827 63.0242 8.68384 62.3885C7.99151 61.7637 7.60963 60.8633 7.64617 59.6662L7.64617 59.6661C7.77593 55.4028 7.99072 51.142 8.20583 46.8754L8.20584 46.8752C8.39835 43.0182 8.6054 39.1619 8.81574 35.2446C8.91377 33.4187 9.01252 31.5796 9.11084 29.721L9.13363 29.2901L8.7107 29.2045C4.89271 28.4319 2.84095 26.9427 1.73982 25.1072C0.623718 23.2468 0.424192 20.937 0.521975 18.3922C0.61213 16.0461 0.686273 13.6771 0.760351 11.3103C0.829049 9.11523 0.897691 6.92201 0.978996 4.75056C1.01361 3.85968 1.13935 2.96147 1.29483 2.04961L17.5013 59.9284ZM17.4493 57.7784C17.4493 57.7783 17.4493 57.7782 17.4493 57.7781L17.949 57.76L17.4493 57.7791C17.4493 57.7789 17.4493 57.7786 17.4493 57.7784ZM55.8917 30.6684C55.0914 31.1983 54.2313 31.7678 53.3491 32.4033H52.9845L53.007 32.9248C53.076 34.5274 53.1469 36.1572 53.2188 37.8085C53.4781 43.7682 53.7496 50.0069 53.9881 56.248C54.0469 57.8232 54.1038 59.3557 53.7594 60.8014L53.7593 60.8019C53.5588 61.6474 53.0927 62.2888 52.38 62.7307C51.6556 63.1799 50.6477 63.4394 49.3544 63.4476H49.3542C48.1373 63.4557 47.2058 63.2165 46.518 62.7993C45.8371 62.3865 45.3606 61.779 45.0798 60.9812L45.0797 60.9808C44.7299 59.99 44.5791 58.9176 44.5705 57.8623C44.5123 50.0707 44.4988 42.2789 44.5257 34.4871V34.4869C44.528 33.7476 44.4731 33.0143 44.1528 32.3233C43.827 31.6202 43.2539 31.0166 42.3241 30.4741C38.7391 28.3791 36.9722 25.3726 36.1646 22.014L36.1646 22.0137C34.7439 16.1184 35.2692 10.4526 39.2917 5.22519L39.2918 5.22511C43.7733 -0.601025 52.4101 -1.11937 58.1845 4.11364L58.1845 4.11368C61.2677 6.90718 63.0893 11.2434 63.4405 15.6675C63.7917 20.093 62.6661 24.5238 59.9637 27.5201C59.2129 28.3518 58.2389 29.0851 57.0817 29.8733C56.7046 30.1301 56.3062 30.394 55.8917 30.6684ZM2.032 0.932331C2.43915 0.690976 3.03105 0.564701 3.80695 0.601419L1.29484 2.04951C1.38549 1.51872 1.64333 1.16273 2.032 0.932331ZM10.7059 15.0408C10.9382 13.4543 10.9214 11.829 10.9051 10.2509L10.7059 15.0408ZM10.8992 8.57697C10.9045 8.09405 10.9111 7.61009 10.9177 7.12532C10.9389 5.56774 10.9601 4.00186 10.9396 2.43592L10.9395 2.43539C10.9311 1.84274 11.029 1.42694 11.2546 1.15291C11.4674 0.894431 11.8812 0.65972 12.7561 0.636125C13.7012 0.610668 14.2429 0.829924 14.5474 1.11889C14.8485 1.40461 15.0059 1.84244 14.9982 2.45252L10.8992 8.57697Z" fill="white" stroke="#FF0000"/>
</svg>
