<svg width="44" height="44" viewBox="0 0 44 44" fill="none" xmlns="http://www.w3.org/2000/svg">
<path d="M13.9008 0H30.0992C37.7722 0 44 6.22937 44 13.9002V43.9487C44 43.977 43.977 44 43.9487 44H13.9008C6.22962 43.9982 0 37.7706 0 30.098V13.9002C0 6.22937 6.22962 0 13.9008 0Z" fill="white"/>
<path d="M26.9774 23.6433C26.9774 24.4693 26.9279 25.214 26.9915 25.9498C27.0605 26.7511 27.133 27.5806 27.3877 28.3341C27.8865 29.804 28.9973 30.5539 30.5574 30.6406C32.1793 30.7308 33.4228 30.1206 34.1321 28.6366C34.3921 28.0918 34.5831 27.4692 34.622 26.8696C34.7087 25.543 34.6839 24.2093 34.6963 22.8792C34.6981 22.6917 34.6592 22.5042 34.6291 22.2336H28.4136V18.0381H37.8323C37.8253 18.4148 37.8235 18.6289 37.8235 18.9101C37.827 24.2359 37.8093 29.5599 37.8429 34.8856C37.8429 37.0471 37.9013 37.5247 37.8429 38.4586C31.5886 38.616 23.8803 38.8194 21.3297 32.7755C20.0933 29.8464 20.1676 26.7758 20.2525 23.6451H26.9756L26.9774 23.6433Z" fill="url(#paint0_linear_3021_5510)"/>
<path d="M34.0097 15.8058C36.1413 15.8058 37.8692 14.0779 37.8692 11.9464C37.8692 9.81486 36.1413 8.08691 34.0097 8.08691C31.8782 8.08691 30.1503 9.81486 30.1503 11.9464C30.1503 14.0779 31.8782 15.8058 34.0097 15.8058Z" fill="url(#paint1_linear_3021_5510)"/>
<defs>
<linearGradient id="paint0_linear_3021_5510" x1="19.5857" y1="12.9122" x2="42.0509" y2="41.5309" gradientUnits="userSpaceOnUse">
<stop stop-color="#F7931E"/>
<stop offset="1" stop-color="#C1272D"/>
</linearGradient>
<linearGradient id="paint1_linear_3021_5510" x1="28.9793" y1="5.53811" x2="51.4445" y2="34.1569" gradientUnits="userSpaceOnUse">
<stop stop-color="#F7931E"/>
<stop offset="1" stop-color="#C1272D"/>
</linearGradient>
</defs>
</svg>
